<svg width="352" height="491" viewBox="0 0 352 491" fill="none" xmlns="http://www.w3.org/2000/svg">
<path d="M0 0H136C158.091 0 176 19.2733 176 43.0481C176 19.2733 193.909 0 216 0H352V490.749H216C193.909 490.749 176 471.476 176 447.701C176 471.476 158.091 490.749 136 490.749H0V0Z" fill="white"/>
<path d="M0 0H136C158.091 0 176 19.2733 176 43.0481C176 19.2733 193.909 0 216 0H352V490.749H216C193.909 490.749 176 471.476 176 447.701C176 471.476 158.091 490.749 136 490.749H0V0Z" stroke="white"/>
</svg>
