<svg width="42" height="43" viewBox="0 0 42 43" fill="none" xmlns="http://www.w3.org/2000/svg">
<g id="arrow-right 1" clip-path="url(#clip0_1_2315)">
<path id="Vector" d="M41.6155 22.7177L21.928 42.4052C21.681 42.6468 21.3486 42.7812 21.003 42.7793C20.6575 42.7773 20.3267 42.6392 20.0823 42.3949C19.838 42.1505 19.6998 41.8197 19.6979 41.4741C19.696 41.1286 19.8304 40.7962 20.072 40.5492L37.5189 23.1022H1.3125C0.964403 23.1022 0.630564 22.9639 0.384422 22.7178C0.138281 22.4716 0 22.1378 0 21.7897C0 21.4416 0.138281 21.1077 0.384422 20.8616C0.630564 20.6155 0.964403 20.4772 1.3125 20.4772H37.5189L20.072 3.0302C19.9479 2.90883 19.8491 2.76405 19.7813 2.60423C19.7135 2.44441 19.6781 2.27273 19.6771 2.09914C19.6762 1.92555 19.7096 1.75349 19.7756 1.59292C19.8416 1.43235 19.9388 1.28647 20.0615 1.16372C20.1843 1.04097 20.3302 0.943788 20.4907 0.877804C20.6513 0.811821 20.8234 0.778346 20.997 0.779317C21.1706 0.780289 21.3422 0.815687 21.502 0.883463C21.6619 0.95124 21.8066 1.05005 21.928 1.17416L41.6155 20.8617C41.8616 21.1078 41.9999 21.4416 41.9999 21.7897C41.9999 22.1378 41.8616 22.4716 41.6155 22.7177Z" fill="#3C2C26"/>
</g>
<defs>
<clipPath id="clip0_1_2315">
<rect width="42" height="42" fill="white" transform="translate(0 0.789795)"/>
</clipPath>
</defs>
</svg>
