<svg width="42" height="43" viewBox="0 0 42 43" fill="none" xmlns="http://www.w3.org/2000/svg">
<g id="arrow-right 2" clip-path="url(#clip0_1_2317)">
<path id="Vector" d="M0.384483 22.7177L20.072 42.4052C20.319 42.6468 20.6514 42.7812 20.997 42.7793C21.3425 42.7773 21.6733 42.6392 21.9177 42.3949C22.162 42.1505 22.3002 41.8197 22.3021 41.4741C22.304 41.1286 22.1696 40.7962 21.928 40.5492L4.48112 23.1022H40.6875C41.0356 23.1022 41.3694 22.9639 41.6156 22.7178C41.8617 22.4716 42 22.1378 42 21.7897C42 21.4416 41.8617 21.1077 41.6156 20.8616C41.3694 20.6155 41.0356 20.4772 40.6875 20.4772H4.48112L21.928 3.0302C22.0521 2.90883 22.1509 2.76405 22.2187 2.60423C22.2865 2.44441 22.3219 2.27273 22.3229 2.09914C22.3238 1.92555 22.2904 1.75349 22.2244 1.59292C22.1584 1.43235 22.0612 1.28647 21.9385 1.16372C21.8157 1.04097 21.6698 0.943788 21.5093 0.877804C21.3487 0.811821 21.1766 0.778346 21.003 0.779317C20.8294 0.780289 20.6578 0.815687 20.498 0.883463C20.3381 0.95124 20.1934 1.05005 20.072 1.17416L0.384483 20.8617C0.138374 21.1078 0.000114441 21.4416 0.000114441 21.7897C0.000114441 22.1378 0.138374 22.4716 0.384483 22.7177Z" fill="#3C2C26"/>
</g>
<defs>
<clipPath id="clip0_1_2317">
<rect width="42" height="42" fill="white" transform="matrix(-1 0 0 1 42 0.789795)"/>
</clipPath>
</defs>
</svg>
